<?xml version="1.0"?>
<svg xmlns="http://www.w3.org/2000/svg" xmlns:xlink="http://www.w3.org/1999/xlink" xmlns:svgjs="http://svgjs.com/svgjs" version="1.1" width="512" height="512" x="0" y="0" viewBox="0 0 345 345" style="enable-background:new 0 0 512 512" xml:space="preserve" class=""><g>
<g xmlns="http://www.w3.org/2000/svg">
	<path d="M172.5,0c-82.71,0-150,67.29-150,150s67.29,150,150,150s150-67.29,150-150S255.21,0,172.5,0z M172.5,270   c-66.169,0-120-53.832-120-120s53.831-120,120-120s120,53.832,120,120S238.668,270,172.5,270z" fill="#ffffff" data-original="#000000" style=""/>
	<path d="M216.963,65h-76.926c-5.523,0-10,4.478-10,10v150c0,5.523,4.477,10,10,10h7.692c5.523,0,10-4.477,10-10v-62.886h49.616   c5.523,0,10-4.478,10-10v-7.306c0-5.522-4.477-10-10-10h-49.616V92.308h59.233c5.523,0,10-4.478,10-10V75   C226.963,69.478,222.486,65,216.963,65z" fill="#ffffff" data-original="#000000" style=""/>
	<path d="M205.498,315h-65.996c-8.284,0-15,6.716-15,15s6.716,15,15,15h65.996c8.284,0,15-6.716,15-15S213.782,315,205.498,315z" fill="#ffffff" data-original="#000000" style=""/>
</g>
<g xmlns="http://www.w3.org/2000/svg">
</g>
<g xmlns="http://www.w3.org/2000/svg">
</g>
<g xmlns="http://www.w3.org/2000/svg">
</g>
<g xmlns="http://www.w3.org/2000/svg">
</g>
<g xmlns="http://www.w3.org/2000/svg">
</g>
<g xmlns="http://www.w3.org/2000/svg">
</g>
<g xmlns="http://www.w3.org/2000/svg">
</g>
<g xmlns="http://www.w3.org/2000/svg">
</g>
<g xmlns="http://www.w3.org/2000/svg">
</g>
<g xmlns="http://www.w3.org/2000/svg">
</g>
<g xmlns="http://www.w3.org/2000/svg">
</g>
<g xmlns="http://www.w3.org/2000/svg">
</g>
<g xmlns="http://www.w3.org/2000/svg">
</g>
<g xmlns="http://www.w3.org/2000/svg">
</g>
<g xmlns="http://www.w3.org/2000/svg">
</g>
</g></svg>
